<svg xmlns="http://www.w3.org/2000/svg" width="346" height="215" fill="none" viewBox="0 0 346 215"><rect width="323" height="165" x="-.416" y=".572" stroke="#E5294A" rx="39.5" transform="matrix(-0.987688 0.156434 0.156434 0.987688 319.095 0.0793856)"/><path fill="#E5294A" d="M69.2549 75.6375L61.0324 76.9398L63.2785 90.9611L59.303 91.5907L56.5654 74.3062L68.7634 72.3742L69.2549 75.6375ZM76.669 75.0201C78.7267 74.6942 80.3852 74.9377 81.6445 75.7507C82.9013 76.5472 83.6861 77.9332 83.9989 79.9086L85.1996 87.4891L81.5945 88.0601L81.3325 86.4057C80.8037 87.755 79.5517 88.5861 77.5763 88.899C76.5557 89.0606 75.6394 89.0286 74.8274 88.8028C74.0319 88.5745 73.3883 88.187 72.8968 87.6405C72.4053 87.094 72.0982 86.4339 71.9757 85.6602C71.7801 84.4256 72.0872 83.3814 72.897 82.5276C73.7232 81.6711 75.1075 81.089 77.0499 80.7814L80.1118 80.2964C79.9788 79.4569 79.622 78.8553 79.0413 78.4917C78.458 78.1116 77.656 78.0024 76.6354 78.164C75.9275 78.2761 75.2462 78.5022 74.5913 78.8421C73.9503 79.163 73.421 79.5506 73.0036 80.0048L71.1946 77.5324C71.8381 76.9073 72.6397 76.3754 73.5995 75.9365C74.5758 75.495 75.599 75.1895 76.669 75.0201ZM78.1286 86.1538C78.7871 86.0495 79.348 85.8088 79.8114 85.4317C80.2722 85.0381 80.5626 84.528 80.6828 83.9015L80.4677 82.5434L77.8256 82.9619C76.2453 83.2122 75.5373 83.8559 75.7015 84.893C75.7797 85.3868 76.0316 85.7519 76.4572 85.9882C76.8966 86.2055 77.4537 86.2607 78.1286 86.1538ZM95.9477 78.6995C96.777 78.8213 97.446 79.1034 97.9549 79.5459C98.4801 79.9858 98.7988 80.5597 98.911 81.2676C99.0439 82.1071 98.8732 82.8935 98.3987 83.6267C97.9216 84.3435 97.2084 84.9543 96.259 85.459C95.3096 85.9638 94.2011 86.3165 92.9336 86.5173C91.8965 86.6815 90.859 86.7362 89.8209 86.6812C88.7829 86.6263 87.802 86.4526 86.8782 86.1601L87.489 83.3044C88.9951 83.7577 90.5959 83.8501 92.2914 83.5816C93.1968 83.4382 93.8838 83.1944 94.3524 82.8502C94.8348 82.4869 95.037 82.0583 94.9587 81.5645C94.891 81.1365 94.659 80.8442 94.263 80.6875C93.8643 80.5144 93.3193 80.4826 92.6279 80.5921L89.9118 81.0223L89.5324 78.6272L91.9029 78.2517C92.5778 78.1448 93.0794 77.9557 93.4077 77.6844C93.7359 77.413 93.8675 77.0715 93.8023 76.66C93.7345 76.232 93.4519 75.9393 92.9545 75.7818C92.4735 75.6218 91.8132 75.6082 90.9737 75.7412C89.6897 75.9445 88.3387 76.4707 86.9207 77.3196L85.5601 74.8015C87.276 73.7029 89.0064 73.0154 90.7513 72.739C91.953 72.5487 93.0465 72.5274 94.0317 72.6751C95.0334 72.8201 95.8515 73.1377 96.486 73.6279C97.1179 74.1015 97.4938 74.7169 97.6137 75.4742C97.7128 76.0997 97.6134 76.6976 97.3156 77.2679C97.0152 77.8217 96.5593 78.2989 95.9477 78.6995ZM114.209 76.1363C114.216 76.1857 114.246 76.5353 114.299 77.1851L104.249 78.7769C104.56 79.5712 105.091 80.1537 105.842 80.5242C106.592 80.8947 107.47 81.0004 108.474 80.8413C109.165 80.7318 109.759 80.5366 110.254 80.2556C110.764 79.9556 111.213 79.5468 111.604 79.0294L114.005 80.9271C112.981 82.5574 111.267 83.5628 108.864 83.9435C107.366 84.1808 105.995 84.1026 104.752 83.7089C103.506 83.2988 102.488 82.6248 101.698 81.6868C100.908 80.7488 100.409 79.6213 100.2 78.3044C99.9942 77.0039 100.114 75.7869 100.558 74.6534C101.017 73.5008 101.736 72.5517 102.715 71.8061C103.707 71.0414 104.87 70.5534 106.204 70.3422C107.504 70.1363 108.725 70.2297 109.868 70.6225C111.01 71.0153 111.961 71.6916 112.72 72.6513C113.493 73.5919 113.989 74.7536 114.209 76.1363ZM106.69 73.252C105.817 73.3902 105.124 73.7531 104.609 74.3408C104.095 74.9285 103.84 75.6608 103.844 76.5377L110.387 75.5013C110.122 74.6826 109.655 74.0733 108.984 73.6733C108.31 73.2569 107.546 73.1164 106.69 73.252ZM128.722 66.9782L130.826 80.2626L126.974 80.8727L125.371 70.7489L121.173 71.4137L121.421 73.779C121.631 75.5344 121.696 77.0091 121.615 78.2031C121.535 79.3971 121.25 80.3703 120.762 81.1226C120.273 81.8749 119.502 82.3345 118.449 82.5014C117.889 82.59 117.207 82.5968 116.402 82.5218L116.099 79.3299C116.367 79.3212 116.559 79.3076 116.674 79.2894C117.251 79.1981 117.646 78.9246 117.861 78.4687C118.089 77.9938 118.202 77.4275 118.199 76.7699C118.194 76.0958 118.131 75.2198 118.011 74.142L117.364 68.7772L128.722 66.9782ZM140.284 69.5005C142.015 69.2432 143.403 69.4284 144.447 70.0561C145.489 70.6673 146.121 71.6725 146.342 73.0717C146.575 74.5368 146.237 75.763 145.33 76.7503C144.438 77.7186 143.061 78.35 141.201 78.6447L134.53 79.6759L132.426 66.3915L136.253 65.7853L136.926 70.0324L140.284 69.5005ZM140.421 75.9586C141.165 75.8577 141.708 75.6114 142.051 75.2196C142.394 74.8278 142.513 74.3026 142.409 73.6442C142.307 73.0022 142.035 72.5643 141.593 72.3306C141.168 72.0942 140.575 72.0278 139.815 72.1313L137.317 72.5016L137.927 76.3536L140.421 75.9586Z"/><path fill="#E5294A" d="M105.608 107.316L101.312 107.996L101.976 112.194L98.7912 112.699L98.1263 108.501L93.8546 109.177L93.3775 106.165L97.6492 105.488L96.9844 101.291L100.17 100.786L100.834 104.984L105.131 104.303L105.608 107.316ZM128.589 107.65L129.105 110.909L116.043 112.978L115.633 110.385L121.302 103.033C121.903 102.246 122.289 101.594 122.461 101.078C122.629 100.545 122.676 100.04 122.6 99.5622C122.491 98.8708 122.169 98.3819 121.634 98.0953C121.113 97.7897 120.4 97.7086 119.494 97.852C118.737 97.972 118.078 98.2283 117.515 98.6211C116.951 98.9974 116.508 99.5062 116.188 100.148L112.977 98.7324C113.493 97.6214 114.299 96.6922 115.396 95.9447C116.49 95.1809 117.802 94.6777 119.333 94.4352C120.617 94.2319 121.77 94.2686 122.793 94.5453C123.829 94.8031 124.672 95.277 125.321 95.9673C125.985 96.6385 126.398 97.4926 126.562 98.5297C126.711 99.468 126.653 100.38 126.388 101.266C126.124 102.151 125.507 103.211 124.538 104.444L121.157 108.827L128.589 107.65ZM148.886 93.3994L140.663 94.7017L142.909 108.723L138.934 109.353L136.196 92.068L148.394 90.1361L148.886 93.3994ZM157.64 92.5696C158.875 92.3741 160.04 92.4849 161.136 92.902C162.245 93.3 163.17 93.972 163.91 94.9178C164.648 95.8471 165.125 96.995 165.341 98.3613C165.558 99.7276 165.46 100.975 165.048 102.103C164.634 103.215 163.962 104.14 163.032 104.878C162.117 105.596 161.042 106.054 159.807 106.249C158.112 106.518 156.693 106.194 155.553 105.278L156.534 111.475L152.682 112.086L149.82 94.0108L153.499 93.4281L153.741 94.959C154.514 93.6555 155.813 92.859 157.64 92.5696ZM158.64 103.194C159.628 103.038 160.382 102.581 160.903 101.823C161.438 101.047 161.617 100.099 161.44 98.9792C161.263 97.8598 160.801 97.0217 160.055 96.4649C159.322 95.8891 158.462 95.6794 157.474 95.8358C156.487 95.9923 155.725 96.4588 155.19 97.2354C154.669 97.9929 154.497 98.9314 154.674 100.051C154.852 101.17 155.306 102.018 156.039 102.594C156.785 103.15 157.652 103.351 158.64 103.194ZM179.936 89.2408L176.169 104.29C175.803 105.918 175.216 107.116 174.41 107.885C173.62 108.651 172.591 109.135 171.324 109.335C170.633 109.445 169.932 109.446 169.224 109.339C168.515 109.232 167.916 109.023 167.428 108.712L168.402 105.748C168.74 105.965 169.11 106.117 169.512 106.205C169.93 106.291 170.329 106.304 170.708 106.244C171.234 106.16 171.642 105.961 171.929 105.645C172.219 105.346 172.449 104.88 172.619 104.245L172.648 104.114L164.775 91.6421L168.751 91.0124L173.907 99.4345L176.233 89.8274L179.936 89.2408ZM191.132 93.998C191.961 94.1198 192.63 94.4019 193.139 94.8444C193.664 95.2844 193.983 95.8582 194.095 96.5661C194.228 97.4056 194.057 98.192 193.583 98.9253C193.106 99.642 192.393 100.253 191.443 100.758C190.494 101.262 189.385 101.615 188.118 101.816C187.081 101.98 186.043 102.035 185.005 101.98C183.967 101.925 182.986 101.751 182.062 101.459L182.673 98.6029C184.179 99.0562 185.78 99.1486 187.476 98.8801C188.381 98.7367 189.068 98.4929 189.537 98.1487C190.019 97.7854 190.221 97.3568 190.143 96.863C190.075 96.435 189.843 96.1427 189.447 95.986C189.049 95.8129 188.504 95.7811 187.812 95.8906L185.096 96.3208L184.717 93.9257L187.087 93.5502C187.762 93.4433 188.264 93.2542 188.592 92.9829C188.92 92.7115 189.052 92.3701 188.986 91.9585C188.919 91.5305 188.636 91.2378 188.139 91.0803C187.658 90.9203 186.997 90.9067 186.158 91.0397C184.874 91.2431 183.523 91.7692 182.105 92.6182L180.744 90.1C182.46 89.0014 184.191 88.3139 185.936 88.0375C187.137 87.8472 188.231 87.8259 189.216 87.9736C190.218 88.1187 191.036 88.4363 191.67 88.9264C192.302 89.4 192.678 90.0155 192.798 90.7727C192.897 91.3982 192.798 91.9961 192.5 92.5664C192.199 93.1202 191.743 93.5974 191.132 93.998ZM207.37 84.8958L209.474 98.1802L205.622 98.7903L204.84 93.8518C203.809 94.5888 202.619 95.0642 201.269 95.278C199.475 95.5622 198.053 95.374 197.003 94.7134C195.967 94.0337 195.314 92.8379 195.043 91.1259L194.382 86.9529L198.234 86.3428L198.856 90.2689C198.983 91.0755 199.282 91.6273 199.751 91.9242C200.236 92.2186 200.874 92.3032 201.664 92.1781C202.668 92.019 203.581 91.6551 204.402 91.0863L203.518 85.5059L207.37 84.8958ZM211.068 84.31L214.896 83.7038L216.147 91.6053L221.365 82.6791L224.896 82.1199L227 95.4043L223.173 96.0105L221.921 88.109L216.728 97.0312L213.173 97.5944L211.068 84.31ZM235.757 88.8537L233.757 89.1705L234.555 94.2077L230.703 94.8178L228.599 81.5334L232.451 80.9233L233.268 86.084L235.342 85.7555L238.13 80.0238L242.229 79.3746L238.596 86.4804L244.654 92.6082L240.111 93.3278L235.757 88.8537ZM249.33 78.0475C251.387 77.7216 253.046 77.9651 254.305 78.7781C255.562 79.5747 256.347 80.9606 256.66 82.936L257.86 90.5165L254.255 91.0875L253.993 89.4331C253.465 90.7824 252.212 91.6135 250.237 91.9264C249.217 92.0881 248.3 92.056 247.488 91.8303C246.693 91.6019 246.049 91.2145 245.558 90.668C245.066 90.1215 244.759 89.4614 244.637 88.6877C244.441 87.4531 244.748 86.4088 245.558 85.555C246.384 84.6985 247.768 84.1165 249.711 83.8088L252.773 83.3239C252.64 82.4843 252.283 81.8827 251.702 81.5191C251.119 81.139 250.317 81.0298 249.296 81.1914C248.588 81.3036 247.907 81.5296 247.252 81.8696C246.611 82.1904 246.082 82.578 245.664 83.0322L243.855 80.5598C244.499 79.9348 245.301 79.4028 246.26 78.9639C247.237 78.5224 248.26 78.2169 249.33 78.0475ZM250.789 89.1812C251.448 89.0769 252.009 88.8362 252.472 88.4591C252.933 88.0655 253.223 87.5554 253.344 86.9289L253.128 85.5709L250.486 85.9893C248.906 86.2396 248.198 86.8833 248.362 87.9204C248.441 88.4142 248.692 88.7793 249.118 89.0156C249.557 89.2329 250.115 89.2881 250.789 89.1812Z"/><path fill="#E5294A" d="M167.859 153.754L168.582 158.317L150.295 161.214L149.72 157.584L157.657 147.291C158.499 146.189 159.039 145.276 159.279 144.553C159.515 143.807 159.58 143.1 159.475 142.431C159.321 141.464 158.87 140.779 158.122 140.378C157.392 139.95 156.394 139.836 155.126 140.037C154.066 140.205 153.143 140.564 152.356 141.114C151.565 141.641 150.946 142.353 150.497 143.251L146.002 141.27C146.724 139.714 147.853 138.413 149.388 137.367C150.92 136.298 152.757 135.593 154.9 135.254C156.698 134.969 158.313 135.02 159.744 135.408C161.195 135.769 162.375 136.432 163.284 137.399C164.213 138.338 164.792 139.534 165.022 140.986C165.23 142.3 165.149 143.576 164.778 144.816C164.407 146.056 163.544 147.539 162.187 149.266L157.454 155.402L167.859 153.754ZM181.261 156.734C179.256 157.052 177.392 156.839 175.668 156.097C173.944 155.354 172.484 154.12 171.29 152.396C170.115 150.645 169.321 148.467 168.909 145.863C168.496 143.259 168.58 140.954 169.16 138.948C169.76 136.916 170.764 135.281 172.175 134.041C173.585 132.802 175.292 132.024 177.297 131.706C179.302 131.389 181.167 131.601 182.891 132.344C184.615 133.087 186.065 134.334 187.24 136.085C188.434 137.809 189.238 139.974 189.65 142.578C190.063 145.182 189.969 147.5 189.37 149.532C188.79 151.538 187.794 153.16 186.384 154.399C184.974 155.638 183.266 156.417 181.261 156.734ZM180.511 151.998C181.986 151.765 183.038 150.948 183.667 149.55C184.319 148.147 184.435 146.121 184.015 143.47C183.596 140.82 182.859 138.929 181.806 137.796C180.775 136.66 179.522 136.209 178.047 136.442C176.596 136.672 175.544 137.489 174.892 138.891C174.263 140.29 174.158 142.315 174.578 144.965C174.998 147.615 175.723 149.508 176.753 150.645C177.807 151.777 179.059 152.228 180.511 151.998ZM204.724 153.018C202.719 153.336 200.854 153.123 199.13 152.38C197.406 151.638 195.947 150.404 194.752 148.68C193.577 146.929 192.784 144.751 192.371 142.147C191.959 139.543 192.042 137.238 192.623 135.232C193.222 133.2 194.227 131.565 195.637 130.325C197.047 129.086 198.755 128.308 200.76 127.99C202.765 127.673 204.629 127.885 206.353 128.628C208.078 129.371 209.527 130.618 210.702 132.369C211.897 134.093 212.7 136.257 213.113 138.862C213.525 141.466 213.432 143.784 212.832 145.816C212.252 147.822 211.257 149.444 209.847 150.683C208.436 151.922 206.729 152.701 204.724 153.018ZM203.974 148.282C205.449 148.049 206.501 147.232 207.13 145.833C207.781 144.431 207.898 142.404 207.478 139.754C207.058 137.104 206.321 135.212 205.268 134.08C204.238 132.944 202.985 132.493 201.51 132.726C200.058 132.956 199.006 133.772 198.354 135.175C197.725 136.574 197.621 138.599 198.04 141.249C198.46 143.899 199.185 145.792 200.216 146.929C201.269 148.061 202.522 148.512 203.974 148.282ZM228.186 149.302C226.181 149.62 224.317 149.407 222.593 148.664C220.869 147.922 219.409 146.688 218.215 144.964C217.04 143.213 216.246 141.035 215.834 138.431C215.421 135.827 215.505 133.522 216.085 131.516C216.684 129.484 217.689 127.848 219.099 126.609C220.51 125.37 222.217 124.592 224.222 124.274C226.227 123.957 228.092 124.169 229.816 124.912C231.54 125.655 232.99 126.902 234.165 128.653C235.359 130.377 236.163 132.541 236.575 135.146C236.987 137.75 236.894 140.068 236.294 142.1C235.714 144.106 234.719 145.728 233.309 146.967C231.899 148.206 230.191 148.985 228.186 149.302ZM227.436 144.566C228.911 144.333 229.963 143.516 230.592 142.117C231.244 140.715 231.36 138.688 230.94 136.038C230.52 133.388 229.784 131.496 228.73 130.364C227.7 129.228 226.447 128.777 224.972 129.01C223.52 129.24 222.468 130.056 221.817 131.459C221.188 132.858 221.083 134.882 221.503 137.533C221.923 140.183 222.648 142.076 223.678 143.212C224.732 144.345 225.984 144.796 227.436 144.566Z"/><path fill="#E5294A" d="M112.187 167.553C110.393 167.837 108.71 167.707 107.139 167.163C105.584 166.616 104.289 165.733 103.252 164.513C102.229 163.275 101.583 161.808 101.314 160.112C101.046 158.417 101.208 156.83 101.801 155.353C102.407 153.856 103.366 152.607 104.675 151.607C106.001 150.604 107.562 149.96 109.356 149.676C111.15 149.392 112.825 149.523 114.379 150.07C115.934 150.617 117.231 151.508 118.271 152.744C119.307 153.963 119.96 155.421 120.229 157.117C120.497 158.812 120.328 160.408 119.721 161.905C119.112 163.385 118.153 164.625 116.843 165.626C115.534 166.626 113.982 167.269 112.187 167.553ZM111.648 164.145C112.668 163.984 113.554 163.607 114.304 163.016C115.051 162.408 115.589 161.648 115.917 160.736C116.261 159.82 116.349 158.828 116.179 157.758C116.01 156.688 115.62 155.771 115.009 155.007C114.416 154.24 113.671 153.692 112.774 153.361C111.876 153.014 110.916 152.922 109.896 153.083C108.875 153.245 107.991 153.63 107.243 154.237C106.493 154.829 105.946 155.582 105.602 156.497C105.274 157.41 105.194 158.401 105.364 159.471C105.533 160.541 105.915 161.459 106.509 162.226C107.119 162.99 107.874 163.545 108.773 163.892C109.669 164.223 110.627 164.307 111.648 164.145ZM135.427 149.191L129.896 150.067L132.117 164.093L128.166 164.718L125.945 150.693L120.439 151.565L119.922 148.306L134.911 145.932L135.427 149.191Z"/><path fill="#E5294A" d="M69.5326 159.38L82.2263 157.37L82.7416 160.623L70.0479 162.634L69.5326 159.38ZM70.58 165.994L83.2738 163.983L83.7891 167.237L71.0953 169.247L70.58 165.994Z"/><path fill="#E5294A" d="M251.726 138.888L251.963 140.382L257.723 139.469L258.073 141.683L252.313 142.595L252.693 144.995L248.347 145.684L247.966 143.284L245.38 143.693L245.029 141.48L247.616 141.07L245.39 127.016L253.47 125.737C256.012 125.334 258.079 125.553 259.67 126.395C261.279 127.233 262.247 128.684 262.574 130.746C262.898 132.791 262.424 134.46 261.153 135.755C259.9 137.047 258.002 137.894 255.46 138.297L251.726 138.888ZM258.205 131.466C258.061 130.559 257.622 129.918 256.889 129.542C256.172 129.163 255.21 129.07 254.001 129.261L250.294 129.848L251.19 135.502L254.896 134.915C256.105 134.723 256.992 134.337 257.556 133.755C258.135 133.153 258.351 132.39 258.205 131.466Z"/></svg>