<svg width="17" height="16" viewBox="0 0 17 16" fill="none" xmlns="http://www.w3.org/2000/svg">
<path d="M16.3805 1.07655C16.2605 0.977085 16.1229 0.903486 15.9756 0.859999C15.8283 0.816512 15.6743 0.803998 15.5223 0.823179C15.3704 0.842359 15.2236 0.892855 15.0904 0.971752C14.9572 1.05065 14.8402 1.15638 14.7462 1.28286L6.63281 12.2051L2.65723 7.13232C2.56398 7.00235 2.44674 6.89332 2.31247 6.8117C2.1782 6.73008 2.02964 6.67754 1.8756 6.6572C1.72157 6.63685 1.5652 6.64912 1.41578 6.69326C1.26635 6.7374 1.12693 6.81253 1.00577 6.91418C0.884608 7.01583 0.784188 7.14193 0.710468 7.28499C0.636748 7.42806 0.591231 7.58517 0.576618 7.74701C0.562005 7.90885 0.578594 8.07211 0.625401 8.22711C0.672208 8.3821 0.748278 8.52567 0.849097 8.6493L5.68238 14.9356C5.79147 15.0764 5.9293 15.1899 6.08575 15.2676C6.2422 15.3453 6.41329 15.3853 6.58645 15.3847C6.77025 15.3933 6.95336 15.3559 7.12065 15.2757C7.28793 15.1955 7.43458 15.0748 7.54847 14.9235L16.6239 2.7877C16.7164 2.65909 16.7836 2.51249 16.8215 2.35643C16.8594 2.20038 16.8672 2.038 16.8445 1.87874C16.8219 1.71948 16.7692 1.56654 16.6895 1.42881C16.6099 1.29109 16.5048 1.17134 16.3805 1.07655Z" fill="#FE445D"/>
</svg>
