<svg xmlns="http://www.w3.org/2000/svg" width="37" height="37" fill="none" viewBox="0 0 37 37"><rect width="36" height="36" x=".5" y=".5" fill="#FF2F53" rx="9.5"/><path fill="#fff" d="M28.6693 24.3851C28.6207 24.085 28.4326 23.8285 28.1508 23.6761L23.9822 21.22L23.9479 21.2008C23.7731 21.1134 23.5801 21.0685 23.3846 21.07C23.0354 21.07 22.7018 21.2023 22.4703 21.4344L21.24 22.6653C21.1873 22.7153 21.0158 22.7877 20.9637 22.7903C20.9495 22.7892 19.5321 22.6871 16.9228 20.0775C14.3181 17.4734 14.2076 16.0517 14.2067 16.0517C14.2082 15.979 14.2797 15.808 14.3306 15.7551L15.3798 14.7062C15.7494 14.3357 15.8602 13.7215 15.641 13.2458L13.3239 8.88585C13.1555 8.53922 12.8284 8.3252 12.4654 8.3252C12.2087 8.3252 11.9609 8.43163 11.7672 8.62501L8.90724 11.4786C8.63302 11.7514 8.39689 12.2283 8.34542 12.6121C8.32041 12.7956 7.81297 17.1756 13.8179 23.1815C18.9159 28.2789 22.8911 28.6749 23.9889 28.6749C24.1226 28.6767 24.2562 28.6698 24.389 28.6543C24.7717 28.6031 25.248 28.3676 25.5205 28.0945L28.3782 25.2371C28.6114 25.0027 28.7178 24.693 28.6693 24.3851Z"/><rect width="36" height="36" x=".5" y=".5" stroke="#fff" rx="9.5"/></svg>