<svg width="81" height="37" viewBox="0 0 81 37" fill="none" xmlns="http://www.w3.org/2000/svg">
<g clip-path="url(#clip0)">
<path fill-rule="evenodd" clip-rule="evenodd" d="M27.5284 0.016432C27.0861 0.0549784 26.6135 0.135144 26.223 0.2378C24.4449 0.70527 22.9548 1.80031 22.0608 3.29638C21.5696 4.11822 21.3056 4.96622 21.2376 5.93994C21.2187 6.20992 21.2271 6.81938 21.2535 7.10256C21.37 8.34963 21.7126 9.31418 22.3715 10.2513C22.7796 10.8316 23.251 11.3053 23.8282 11.715C24.773 12.3856 25.8031 12.7636 27.0692 12.9041C27.393 12.94 28.2743 12.9401 28.5582 12.9042C29.2336 12.8188 29.822 12.6378 30.3906 12.3405C30.614 12.2237 30.9154 12.0353 31.0962 11.8994C31.1679 11.8455 31.2295 11.8015 31.2333 11.8015C31.237 11.8015 31.24 12.0382 31.24 12.3274V12.8534H32.7884H34.3368V9.45548V6.05759H31.529H28.7213V7.31709V8.57659L29.9029 8.57723L31.0845 8.57788L30.9215 8.72435C30.3019 9.28107 29.6287 9.62769 28.899 9.76559C28.4314 9.85398 27.8628 9.84882 27.4173 9.75213C27.1127 9.68599 26.7416 9.54016 26.4954 9.38969C25.7895 8.9585 25.3117 8.25394 25.1227 7.3653C25.0217 6.89062 25.0099 6.30157 25.0913 5.78077C25.2414 4.81933 25.7483 4.01926 26.5106 3.54044C26.9819 3.2444 27.4829 3.1066 28.0915 3.10555C28.6165 3.10467 29.048 3.1994 29.5213 3.41947C30.1739 3.72288 30.6571 4.13995 30.966 4.66659C30.9973 4.71989 31.0244 4.7655 31.0263 4.76797C31.0295 4.77191 33.5915 2.94557 33.7556 2.82235L33.8191 2.77473L33.7643 2.68262C33.3202 1.93662 32.6482 1.31192 31.7974 0.854196C30.9648 0.406256 30.0945 0.141649 29.0842 0.0292353C28.7964 -0.00277816 27.8394 -0.0106542 27.5284 0.016432ZM37.1773 6.43486C35.9811 9.93078 34.9985 12.8051 34.9938 12.8223L34.9851 12.8535L36.9007 12.85L38.8162 12.8464L39.2188 11.6008L39.6214 10.3551L41.4393 10.3516L43.2571 10.3481L43.2712 10.3826C43.2788 10.4016 43.4667 10.9653 43.6886 11.6352L44.0919 12.8534H45.9994H47.9068L47.8639 12.7323C47.8403 12.6657 46.8772 9.83956 45.7233 6.45205C44.5696 3.06454 43.6087 0.244679 43.588 0.185677L43.5503 0.078411L41.4512 0.0785217L39.3522 0.0786324L37.1773 6.43486ZM48.6793 1.60778V3.13714L51.6318 3.14063L54.5844 3.14412L51.4846 6.69425L48.3848 10.2444L48.384 11.5489L48.383 12.8534H53.8059H59.2288V11.324V9.79465L56.2659 9.79114L53.3029 9.78766L56.2066 6.24003L59.1102 2.6924V1.3854V0.078411H53.8948H48.6793V1.60778ZM61.0216 6.46589V12.8534H65.8963H70.771V11.324V9.79458H67.7781H64.785V8.7842V7.77384H67.2669H69.7487V6.35516V4.93649H67.2669H64.785V4.03685V3.1372H67.6892H70.5932V1.60781V0.078411H65.8074H61.0216V6.46589ZM72.5193 6.46589V12.8534H77.4977H82.4762V11.324V9.79458H79.3722H76.268V4.93649V0.078411H74.3937H72.5193V6.46589ZM42.0565 5.75309C42.3833 6.96726 42.654 7.97157 42.6581 7.98491C42.6654 8.00784 42.5997 8.00912 41.4276 8.00912C40.7045 8.00912 40.1893 8.00395 40.1893 7.99668C40.1893 7.98684 41.3731 3.78825 41.4364 3.57318C41.4455 3.54274 41.4549 3.52405 41.4575 3.53166C41.4601 3.53928 41.7296 4.53892 42.0565 5.75309Z" fill="#004157"/>
<path fill-rule="evenodd" clip-rule="evenodd" d="M31.2078 14.9879C29.7242 15.083 28.4463 15.408 27.2237 16.0013C26.3456 16.4274 25.5662 16.9453 24.812 17.6043C24.5664 17.8188 23.9036 18.4993 23.6842 18.7621C22.4325 20.2606 21.5885 22.0148 21.2353 23.8517C21.0408 24.8631 20.9933 25.9852 21.0989 27.0751C21.1833 27.9467 21.3914 28.8943 21.6814 29.7271C22.0908 30.9028 22.8027 32.1597 23.6424 33.1892C24.2629 33.9498 24.9827 34.6068 25.8394 35.1947C27.4386 36.2918 28.9692 36.8254 30.9615 36.9805C31.2515 37.0031 32.2917 37.0031 32.5827 36.9805C33.3432 36.9215 33.9907 36.8176 34.6006 36.6566C35.3373 36.4622 35.899 36.2471 36.5638 35.9051C37.4374 35.4557 38.1586 34.9623 38.8827 34.3182C39.0965 34.1281 39.7033 33.5055 39.9012 33.2732C40.7842 32.2371 41.4344 31.1157 41.9361 29.7645C42.7595 27.5463 42.8114 25.0447 42.0811 22.7539C41.7328 21.6614 41.2466 20.6258 40.6672 19.7425C39.6205 18.1468 38.2843 16.9334 36.6527 16.0972C35.4168 15.4638 34.2598 15.1327 32.8426 15.0072C32.5467 14.981 31.507 14.9687 31.2078 14.9879ZM45.0732 25.9615V36.8239H47.9872H50.9013L50.9047 31.4875L50.9081 26.151L55.1196 31.4875L59.3312 36.8239H61.6487H63.9664V25.9616V15.0992H61.0524H58.1384L58.135 20.6208L58.1315 26.1422L53.8767 20.6243L49.6217 15.1062L47.3475 15.1027L45.0732 15.0991V25.9615ZM67.6055 25.9616V36.8239H75.171H82.7364V34.2256V31.6274H78.085H73.4335V29.9116V28.1956H77.2915H81.1495V25.7795V23.3634L77.2949 23.3599L73.4403 23.3564L73.4369 21.8261L73.4334 20.2958H77.9482H82.4628V17.6975V15.0992H75.0341H67.6055V25.9616ZM32.365 20.2886C33.2229 20.3734 33.8991 20.6214 34.5061 21.0736C35.3814 21.7258 35.9643 22.5638 36.3375 23.7065C36.5561 24.3759 36.6564 25.0042 36.6693 25.7868C36.6814 26.5153 36.6245 27.0464 36.462 27.7265C36.2244 28.7197 35.8776 29.4567 35.3347 30.1216C35.1002 30.4088 34.6851 30.7959 34.3838 31.0084C33.8711 31.37 33.2175 31.5993 32.4527 31.6858C32.197 31.7148 31.4237 31.7104 31.1736 31.6788C30.5664 31.6019 30.1181 31.4714 29.6482 31.2351C28.8212 30.8191 28.0906 30.0459 27.6234 29.0921C27.3566 28.5474 27.1366 27.8007 27.0353 27.0961C26.9686 26.6324 26.9418 25.9501 26.9725 25.4993C27.0376 24.5437 27.2648 23.6451 27.6386 22.8648C28.1393 21.8195 29.0284 20.9583 30.008 20.5697C30.3564 20.4315 30.8398 20.3218 31.2693 20.2833C31.497 20.2628 32.1361 20.2661 32.365 20.2886Z" fill="#FF2F53"/>
<path d="M15.5619 0.0996094V20.7157V36.8305H10.7706H6.98489V24.8525V9.58126H0V5.99075L6.98489 0.0996094H13.0613H15.5619Z" fill="#FF2F53"/>
</g>
<defs>
<clipPath id="clip0">
<rect width="80.6071" height="37" fill="white"/>
</clipPath>
</defs>
</svg>
