<svg width="22" height="23" viewBox="0 0 22 23" fill="none" xmlns="http://www.w3.org/2000/svg">
<path d="M16 1.81445H6C3.23858 1.81445 1 4.05303 1 6.81445V16.8145C1 19.5759 3.23858 21.8145 6 21.8145H16C18.7614 21.8145 21 19.5759 21 16.8145V6.81445C21 4.05303 18.7614 1.81445 16 1.81445Z" stroke="white"/>
<path d="M19.3804 1.07655C19.2605 0.977085 19.1228 0.903486 18.9756 0.859999C18.8283 0.816512 18.6742 0.803998 18.5223 0.823179C18.3703 0.842359 18.2235 0.892855 18.0903 0.971752C17.9571 1.05065 17.8401 1.15638 17.7462 1.28286L9.63275 12.2051L5.65717 7.13232C5.56392 7.00235 5.44668 6.89332 5.31241 6.8117C5.17814 6.73008 5.02958 6.67754 4.87554 6.6572C4.72151 6.63685 4.56514 6.64912 4.41572 6.69326C4.26629 6.7374 4.12686 6.81253 4.00571 6.91418C3.88455 7.01583 3.78413 7.14193 3.71041 7.28499C3.63669 7.42806 3.59117 7.58517 3.57656 7.74701C3.56194 7.90885 3.57853 8.07211 3.62534 8.22711C3.67215 8.3821 3.74822 8.52567 3.84904 8.6493L8.68232 14.9356C8.79141 15.0764 8.92924 15.1899 9.08569 15.2676C9.24214 15.3453 9.41323 15.3853 9.58638 15.3847C9.77019 15.3933 9.9533 15.3559 10.1206 15.2757C10.2879 15.1955 10.4345 15.0748 10.5484 14.9235L19.6238 2.7877C19.7164 2.65909 19.7835 2.51249 19.8214 2.35643C19.8593 2.20038 19.8671 2.038 19.8445 1.87874C19.8218 1.71948 19.7691 1.56654 19.6895 1.42881C19.6098 1.29109 19.5048 1.17134 19.3804 1.07655Z" fill="#FE445D"/>
</svg>
